# Blender 3.6.5
# www.blender.org
mtllib blade.mtl
o Cube.005
v 59.000938 -12.007769 -90.423241
v 59.012691 -10.200680 -89.940445
v 59.016594 14.397291 -89.940788
v 58.985985 -13.874429 -99.889420
v 58.985985 -13.874429 -93.612656
v 58.989208 -13.388805 -91.802345
v 59.016594 18.069382 -93.612877
v 59.016594 17.584776 -91.804298
v 59.016594 18.069382 -99.889198
v 59.016594 16.205870 -90.425400
v 58.989208 -13.388805 -101.699730
v 59.000938 -12.007769 -103.078835
v 59.012691 -10.200680 -103.561630
v 59.016594 14.397291 -103.561287
v 59.016594 16.205870 -103.076675
v 59.016594 17.584776 -101.697777
v 93.880569 -13.891510 -90.427773
v 93.866028 -15.750428 -99.888756
v 93.896637 17.584776 -91.804298
v 93.869118 -15.267322 -101.695213
v 93.892471 -12.081640 -103.560966
v 93.896637 14.397291 -103.561287
v 93.896637 16.205870 -103.076675
v 93.892471 -12.081640 -89.941109
v 93.896637 14.397291 -89.940788
v 93.866028 -15.750428 -93.613319
v 93.869118 -15.267322 -91.806862
v 93.896637 18.069382 -93.612877
v 93.896637 18.069382 -99.889198
v 93.896637 16.205870 -90.425400
v 93.880569 -13.891510 -103.074303
v 93.896637 17.584776 -101.697777
v 59.016594 2.097044 -103.561287
v 93.896637 1.159087 -103.561287
v 59.016594 2.097044 -89.940788
v 93.896637 1.159087 -89.940788
v 59.016594 18.069382 -96.751038
v 58.985981 -13.874472 -96.751038
v 93.896637 18.069382 -96.751038
v 93.866028 -15.750384 -96.751038
v 59.016594 -11.716728 -90.936447
v 59.016594 -10.128161 -90.510788
v 59.016594 14.322249 -90.510788
v 59.016594 -13.305294 -99.814156
v 59.016594 -13.305294 -93.687920
v 59.016594 -12.879641 -92.099358
v 59.016594 17.499382 -93.687920
v 59.016594 17.073729 -92.099358
v 59.016594 17.499382 -99.814156
v 59.016594 15.910816 -90.936447
v 59.016594 -12.879641 -101.402718
v 59.016594 -11.716728 -102.565628
v 59.016594 -10.128161 -102.991287
v 59.016594 14.322249 -102.991287
v 59.016594 15.910816 -102.565628
v 59.016594 17.073729 -101.402718
v 93.896637 -13.592642 -90.936447
v 93.896637 -15.181207 -99.814156
v 93.896637 17.073729 -92.099358
v 93.896637 -14.755553 -101.402718
v 93.896637 -12.004076 -102.991287
v 93.896637 14.322249 -102.991287
v 93.896637 15.910816 -102.565628
v 93.896637 -12.004076 -90.510788
v 93.896637 14.322249 -90.510788
v 93.896637 -15.181207 -93.687920
v 93.896637 -14.755553 -92.099358
v 93.896637 17.499382 -93.687920
v 93.896637 17.499382 -99.814156
v 93.896637 15.910816 -90.936447
v 93.896637 -13.592642 -102.565628
v 93.896637 17.073729 -101.402718
v 59.016594 2.097044 -102.991287
v 93.896637 1.159087 -102.991287
v 59.016594 2.097044 -90.510788
v 93.896637 1.159087 -90.510788
v 59.016594 17.499382 -96.751038
v 59.016594 -13.305294 -96.751038
v 93.896637 17.499382 -96.751038
v 93.896637 -15.181207 -96.751038
vn -0.0000 0.7071 0.7071
vn -0.0519 -0.9646 -0.2585
vn -0.0000 1.0000 -0.0000
vn -0.0000 -0.0000 1.0000
vn -0.0000 0.9659 0.2588
vn -0.0139 -0.2588 -0.9658
vn -0.0380 -0.7066 -0.7066
vn -0.0000 0.2588 0.9659
vn -0.0139 -0.2588 0.9658
vn -0.0519 -0.9646 0.2585
vn -0.0380 -0.7066 0.7066
vn -0.0000 0.9659 -0.2588
vn -0.0000 0.7071 -0.7071
vn -0.0000 -0.0000 -1.0000
vn -0.0000 0.2588 -0.9659
vn -0.0537 -0.9986 -0.0000
vn -0.0000 -0.7071 -0.7071
vn 0.0519 0.9646 0.2585
vn -0.0000 -1.0000 -0.0000
vn -0.0000 -0.9659 -0.2588
vn 0.0139 0.2588 0.9658
vn 0.0380 0.7066 0.7066
vn -0.0000 -0.2588 -0.9659
vn 0.0139 0.2588 -0.9658
vn 0.0519 0.9646 -0.2585
vn 0.0380 0.7066 -0.7066
vn -0.0000 -0.9659 0.2588
vn -0.0000 -0.7071 0.7071
vn -0.0000 -0.2588 0.9659
vn 0.0537 0.9986 -0.0000
vn -0.9999 0.0076 -0.0155
vn -0.9987 0.0495 -0.0123
vn -1.0000 -0.0000 -0.0000
vn 0.9998 -0.0078 0.0160
vn 0.9993 -0.0293 0.0247
vn 1.0000 -0.0000 -0.0000
vn 0.9998 -0.0078 -0.0160
vn -1.0000 0.0002 0.0034
vn 1.0000 -0.0002 -0.0036
vn -0.9986 0.0537 -0.0000
vn 0.9987 -0.0495 -0.0123
vn 0.9987 -0.0495 0.0123
vn -1.0000 0.0002 -0.0034
vn 0.9986 -0.0537 -0.0000
vn -0.9993 0.0290 0.0244
vn -0.9987 0.0495 0.0123
vn -0.9999 0.0076 0.0155
vn -0.9993 0.0290 -0.0244
vn 0.9993 -0.0293 -0.0247
vn 1.0000 -0.0002 0.0036
vt 0.625000 0.815504
vt 0.625000 0.877003
vt 0.613653 0.877003
vt 0.613653 0.815504
vt 0.309496 0.563642
vt 0.247997 0.563642
vt 0.247997 0.531821
vt 0.309496 0.531821
vt 0.690504 0.625000
vt 0.752003 0.625000
vt 0.752003 0.686358
vt 0.690504 0.686358
vt 0.500000 0.815504
vt 0.602305 0.815504
vt 0.602305 0.877003
vt 0.500000 0.877003
vt 0.752003 0.750000
vt 0.690504 0.750000
vt 0.375000 0.434496
vt 0.375000 0.372997
vt 0.397695 0.372997
vt 0.397695 0.434496
vt 0.247997 0.500000
vt 0.309496 0.500000
vt 0.375000 0.877003
vt 0.375000 0.815504
vt 0.397695 0.815504
vt 0.397695 0.877003
vt 0.247997 0.686358
vt 0.309496 0.686358
vt 0.309496 0.718179
vt 0.247997 0.718179
vt 0.309496 0.750000
vt 0.247997 0.750000
vt 0.752003 0.563642
vt 0.690504 0.563642
vt 0.690504 0.500000
vt 0.752003 0.500000
vt 0.625000 0.372997
vt 0.625000 0.434496
vt 0.613653 0.434496
vt 0.613653 0.372997
vt 0.500000 0.372997
vt 0.602305 0.372997
vt 0.602305 0.434496
vt 0.500000 0.434496
vt 0.247997 0.625000
vt 0.309496 0.625000
s 0
f 19/1/1 8/2/1 10/3/1 30/4/1
f 18/5/2 4/6/2 11/7/2 20/8/2
f 39/9/3 37/10/3 7/11/3 28/12/3
f 36/13/4 25/14/4 3/15/4 35/16/4
f 28/12/5 7/11/5 8/17/5 19/18/5
f 31/19/6 12/20/6 13/21/6 21/22/6
f 20/8/7 11/7/7 12/23/7 31/24/7
f 30/4/8 10/3/8 3/15/8 25/14/8
f 1/25/9 17/26/9 24/27/9 2/28/9
f 5/29/10 26/30/10 27/31/10 6/32/10
f 6/32/11 27/31/11 17/33/11 1/34/11
f 9/35/12 29/36/12 32/37/12 16/38/12
f 16/39/13 32/40/13 23/41/13 15/42/13
f 33/43/14 14/44/14 22/45/14 34/46/14
f 15/42/15 23/41/15 22/45/15 14/44/15
f 38/47/16 40/48/16 26/30/16 5/29/16
f 13/21/14 33/43/14 34/46/14 21/22/14
f 24/27/4 36/13/4 35/16/4 2/28/4
f 4/6/16 18/5/16 40/48/16 38/47/16
f 29/36/3 9/35/3 37/10/3 39/9/3
f 59/1/17 70/4/17 50/3/17 48/2/17
f 58/5/18 60/8/18 51/7/18 44/6/18
f 79/9/19 68/12/19 47/11/19 77/10/19
f 76/13/14 75/16/14 43/15/14 65/14/14
f 68/12/20 59/18/20 48/17/20 47/11/20
f 71/19/21 61/22/21 53/21/21 52/20/21
f 60/8/22 71/24/22 52/23/22 51/7/22
f 70/4/23 65/14/23 43/15/23 50/3/23
f 41/25/24 42/28/24 64/27/24 57/26/24
f 45/29/25 46/32/25 67/31/25 66/30/25
f 46/32/26 41/34/26 57/33/26 67/31/26
f 49/35/27 56/38/27 72/37/27 69/36/27
f 56/39/28 55/42/28 63/41/28 72/40/28
f 73/43/4 74/46/4 62/45/4 54/44/4
f 55/42/29 54/44/29 62/45/29 63/41/29
f 78/47/30 45/29/30 66/30/30 80/48/30
f 53/21/4 61/22/4 74/46/4 73/43/4
f 64/27/14 42/28/14 75/16/14 76/13/14
f 44/6/30 78/47/30 80/48/30 58/5/30
f 69/36/19 79/9/19 77/10/19 49/35/19
f 1/25/31 2/28/31 42/28/31 41/25/31
f 5/29/32 6/32/32 46/32/32 45/29/32
f 9/35/33 16/38/33 56/38/33 49/35/33
f 24/27/34 17/26/34 57/26/34 64/27/34
f 17/33/35 27/31/35 67/31/35 57/33/35
f 30/4/36 25/14/36 65/14/36 70/4/36
f 31/19/37 21/22/37 61/22/37 71/19/37
f 32/37/36 29/36/36 69/36/36 72/37/36
f 33/43/38 13/21/38 53/21/38 73/43/38
f 21/22/39 34/46/39 74/46/39 61/22/39
f 37/10/33 9/35/33 49/35/33 77/10/33
f 38/47/40 5/29/40 45/29/40 78/47/40
f 25/14/36 36/13/36 76/13/36 65/14/36
f 15/42/33 14/44/33 54/44/33 55/42/33
f 18/5/41 20/8/41 60/8/41 58/5/41
f 22/45/36 23/41/36 63/41/36 62/45/36
f 27/31/42 26/30/42 66/30/42 67/31/42
f 14/44/33 33/43/33 73/43/33 54/44/33
f 34/46/36 22/45/36 62/45/36 74/46/36
f 2/28/43 35/16/43 75/16/43 42/28/43
f 26/30/44 40/48/44 80/48/44 66/30/44
f 29/36/36 39/9/36 79/9/36 69/36/36
f 8/17/33 7/11/33 47/11/33 48/17/33
f 3/15/33 10/3/33 50/3/33 43/15/33
f 12/23/45 11/7/45 51/7/45 52/23/45
f 16/39/33 15/42/33 55/42/33 56/39/33
f 19/1/36 30/4/36 70/4/36 59/1/36
f 23/41/36 32/40/36 72/40/36 63/41/36
f 35/16/33 3/15/33 43/15/33 75/16/33
f 7/11/33 37/10/33 77/10/33 47/11/33
f 40/48/44 18/5/44 58/5/44 80/48/44
f 10/3/33 8/2/33 48/2/33 50/3/33
f 11/7/46 4/6/46 44/6/46 51/7/46
f 13/21/47 12/20/47 52/20/47 53/21/47
f 6/32/48 1/34/48 41/34/48 46/32/48
f 20/8/49 31/24/49 71/24/49 60/8/49
f 4/6/40 38/47/40 78/47/40 44/6/40
f 39/9/36 28/12/36 68/12/36 79/9/36
f 36/13/50 24/27/50 64/27/50 76/13/50
f 28/12/36 19/18/36 59/18/36 68/12/36
