# Blender 3.6.5
# www.blender.org
mtllib lock.mtl
o Cube.001
v -180.686249 -57.647804 -35.075405
v -180.686249 17.454029 -35.075405
v -180.686249 -57.647804 -39.280170
v -180.686249 17.454029 -39.280170
v -10.772125 -57.647804 -35.075405
v -10.772125 17.454029 -35.075405
v -10.772125 -57.647804 -39.280170
v -10.772125 17.454029 -39.280170
v -180.686249 -63.515617 -37.177788
v -180.686249 17.454029 -37.177788
v -10.772125 -63.515617 -37.177788
v -10.772125 17.454029 -37.177788
v -180.686249 -17.481455 -35.075405
v -180.686249 -17.481459 -39.280170
v -10.772125 -17.481459 -39.280170
v -10.772125 -17.481459 -35.075405
v -10.772125 -17.481459 -37.177788
v -180.686249 -17.481459 -37.177788
v -180.686249 -50.804962 -39.280170
v -10.772125 -50.804962 -39.280170
v -10.772125 -50.804962 -35.075405
v -10.772125 -50.804962 -37.177788
v -180.686249 -50.804962 -37.177788
v -180.686249 -50.804962 -35.075405
v -180.686249 -8.117698 -35.075405
v -180.686249 15.243866 -35.075405
v -180.686249 15.243862 -39.280170
v -180.686249 -8.117708 -39.280170
v -10.772125 15.243862 -37.177788
v -10.772125 -8.117708 -37.177788
v -180.686249 15.243862 -37.177788
v -180.686249 -8.117708 -37.177788
v -10.772125 15.243862 -39.082630
v -10.772125 14.657532 -39.280170
v -11.358459 15.243862 -39.280170
v -10.772125 15.830193 -39.280170
v -10.772125 15.072132 -39.222313
v -10.772125 -7.531378 -39.280170
v -10.772125 -8.117708 -39.082630
v -10.772125 -8.704039 -39.280170
v -11.358459 -8.117708 -39.280170
v -10.772125 -7.945976 -39.222313
v -10.772125 14.657532 -35.075405
v -10.772125 15.243862 -35.272945
v -10.772125 15.830193 -35.075405
v -11.358459 15.243862 -35.075405
v -10.772125 15.072132 -35.133263
v -10.772125 -8.117708 -35.272945
v -10.772125 -7.531378 -35.075405
v -11.358459 -8.117708 -35.075405
v -10.772125 -8.704039 -35.075405
v -10.772125 -7.945976 -35.133263
v 24.105148 15.243862 -37.177788
v 24.473038 14.875969 -37.177788
v 24.473038 -7.749817 -37.177788
v 24.105148 -8.117708 -37.177788
v 24.473038 14.584354 -39.156227
v 24.105148 14.657532 -39.280170
v 24.473038 14.875969 -39.057980
v 24.105148 15.243862 -39.082630
v 24.473038 14.790558 -39.127449
v 24.105148 15.072132 -39.222313
v 24.473038 -7.749817 -39.057976
v 24.105148 -8.117708 -39.082630
v 24.473038 -7.458200 -39.156227
v 24.105148 -7.531378 -39.280170
v 24.473038 -7.664404 -39.127449
v 24.105148 -7.945976 -39.222313
v 24.473038 14.875969 -35.297596
v 24.105148 15.243862 -35.272945
v 24.473038 14.584354 -35.199348
v 24.105148 14.657532 -35.075405
v 24.473038 14.790558 -35.228127
v 24.105148 15.072132 -35.133263
v 24.473038 -7.458200 -35.199348
v 24.105148 -7.531378 -35.075405
v 24.473038 -7.749817 -35.297600
v 24.105148 -8.117708 -35.272945
v 24.473038 -7.664404 -35.228127
v 24.105148 -7.945976 -35.133263
v -3.363373 3.169786 -39.280170
v -3.298744 2.513626 -39.280170
v -3.298744 3.825947 -39.280170
v -3.107346 1.882681 -39.280170
v -3.107346 4.456892 -39.280170
v -2.796539 1.301197 -39.280170
v -2.796539 5.038376 -39.280170
v -2.378265 0.791525 -39.280170
v -2.378265 5.548048 -39.280170
v -1.287109 0.062437 -39.280170
v -1.287109 6.277136 -39.280170
v -1.868591 0.373245 -39.280170
v -1.868591 5.966328 -39.280170
v -0.656158 -0.128958 -39.280170
v -0.656158 6.468531 -39.280170
v 0.000000 -0.193584 -39.280170
v 0.000000 6.533157 -39.280170
v 1.287109 6.277136 -39.280170
v 2.378265 5.548048 -39.280170
v 1.868591 5.966328 -39.280170
v 0.656158 -0.128958 -39.280170
v 0.656158 6.468531 -39.280170
v 2.796539 1.301197 -39.280170
v 3.363373 3.169786 -39.280170
v 3.298744 2.513626 -39.280170
v 3.298744 3.825947 -39.280170
v 3.107346 1.882681 -39.280170
v 3.107346 4.456892 -39.280170
v 2.796539 5.038376 -39.280170
v 1.287109 0.062437 -39.280170
v 1.868591 0.373245 -39.280170
v 2.378265 0.791525 -39.280170
v -3.363373 3.169786 -35.075405
v -3.298744 2.513626 -35.075405
v -3.298744 3.825947 -35.075405
v -2.796539 1.301197 -35.075405
v -3.107346 4.456892 -35.075405
v -3.107346 1.882681 -35.075405
v -2.796539 5.038376 -35.075405
v -1.868591 0.373245 -35.075405
v -2.378265 5.548048 -35.075405
v -0.656158 6.468531 -35.075405
v -0.656158 -0.128958 -35.075405
v -1.287109 6.277136 -35.075405
v -1.287109 0.062437 -35.075405
v -1.868591 5.966328 -35.075405
v -2.378265 0.791525 -35.075405
v 0.656158 -0.128958 -35.075405
v 0.656158 6.468531 -35.075405
v 1.868591 0.373245 -35.075405
v 1.868591 5.966328 -35.075405
v 1.287109 0.062437 -35.075405
v 1.287109 6.277136 -35.075405
v 2.796539 1.301197 -35.075405
v 2.796539 5.038376 -35.075405
v 3.363373 3.169786 -35.075405
v 3.298744 3.825947 -35.075405
v 3.298744 2.513626 -35.075405
v 3.107346 4.456892 -35.075405
v 3.107346 1.882681 -35.075405
v 2.378265 5.548048 -35.075405
v 2.378265 0.791525 -35.075405
v 0.000000 -0.193584 -35.075405
v 0.000000 6.533157 -35.075405
v -173.420441 6.067516 -39.280170
v -173.332306 5.172720 -39.280170
v -173.332306 6.962313 -39.280170
v -173.071304 4.312309 -39.280170
v -172.647461 8.615681 -39.280170
v -172.647461 3.519352 -39.280170
v -173.071304 7.822723 -39.280170
v -172.077057 2.824318 -39.280170
v -171.382019 9.881115 -39.280170
v -169.728668 1.569073 -39.280170
v -170.589066 1.830074 -39.280170
v -169.728668 10.565960 -39.280170
v -171.382019 2.253920 -39.280170
v -170.589066 10.304958 -39.280170
v -172.077057 9.310715 -39.280170
v -167.939056 1.569073 -39.280170
v -167.939056 10.565960 -39.280170
v -166.285706 2.253920 -39.280170
v -166.285706 9.881115 -39.280170
v -167.078659 1.830074 -39.280170
v -167.078659 10.304958 -39.280170
v -165.020264 3.519352 -39.280170
v -165.020264 8.615681 -39.280170
v -164.247284 6.067516 -39.280170
v -164.335419 6.962313 -39.280170
v -164.335419 5.172720 -39.280170
v -164.596420 7.822723 -39.280170
v -164.596420 4.312309 -39.280170
v -165.590668 9.310715 -39.280170
v -165.590668 2.824318 -39.280170
v -168.833862 1.480942 -39.280170
v -168.833862 10.654091 -39.280170
v -173.420441 6.067516 -35.075405
v -173.332306 5.172720 -35.075405
v -173.332306 6.962313 -35.075405
v -172.647461 3.519352 -35.075405
v -173.071304 7.822723 -35.075405
v -173.071304 4.312309 -35.075405
v -172.647461 8.615681 -35.075405
v -171.382019 2.253920 -35.075405
v -171.889984 2.670786 -35.075405
v -172.077057 9.310715 -35.075405
v -169.728668 10.565960 -35.075405
v -169.728668 1.569073 -35.075405
v -170.589066 10.304958 -35.075405
v -170.589066 1.830074 -35.075405
v -171.382019 9.881115 -35.075405
v -172.077057 2.824318 -35.075405
v -167.939056 1.569073 -35.075405
v -167.939056 10.565960 -35.075405
v -166.285706 2.253920 -35.075405
v -166.285706 9.881115 -35.075405
v -167.078659 1.830074 -35.075405
v -167.078659 10.304958 -35.075405
v -165.020264 3.519352 -35.075405
v -165.020264 8.615681 -35.075405
v -164.247284 6.067516 -35.075405
v -164.335419 6.962313 -35.075405
v -164.335419 5.172720 -35.075405
v -164.596420 7.822723 -35.075405
v -164.596420 4.312309 -35.075405
v -165.590668 9.310715 -35.075405
v -165.590668 2.824318 -35.075405
v -168.833862 1.480942 -35.075405
v -168.833862 10.654091 -35.075405
vn -1.0000 -0.0000 -0.0000
vn -0.0000 -0.0000 -1.0000
vn -0.0000 1.0000 -0.0000
vn -0.0000 -0.1382 0.9904
vn -0.0000 -0.3373 0.9414
vn -0.0000 -0.3373 -0.9414
vn 1.0000 -0.0000 -0.0000
vn -0.0000 -0.0000 1.0000
vn -0.0000 0.1382 -0.9904
vn -0.0000 -1.0000 -0.0000
vn -0.0000 0.6310 -0.7758
vn 0.2581 -0.0000 -0.9661
vn 1.0000 -0.0000 -0.0001
vn 0.2581 -0.0000 0.9661
vn -0.0000 -0.6310 -0.7758
vn -0.0000 -0.1382 -0.9904
vn -0.0000 0.6310 0.7758
vn -0.0000 0.1382 0.9904
vn -0.0000 -0.6310 0.7758
vn 0.5640 0.5211 -0.6406
vn 0.3397 0.1300 -0.9315
vn 0.5640 -0.5211 -0.6406
vn 0.3397 -0.1300 -0.9315
vn 0.3397 0.1300 0.9315
vn 0.5640 0.5211 0.6406
vn 0.3397 -0.1300 0.9315
vn 0.5640 -0.5211 0.6406
vn 0.3193 -0.0000 -0.9477
vn 0.7071 0.7071 -0.0000
vn 0.7071 -0.7071 -0.0000
vn 0.3193 -0.0000 0.9477
vn -0.0980 -0.9952 -0.0000
vn -0.2903 -0.9569 -0.0000
vn -0.4714 -0.8819 -0.0000
vn -0.6344 -0.7730 -0.0000
vn -0.7730 -0.6344 -0.0000
vn -0.8819 -0.4714 -0.0000
vn -0.9569 -0.2903 -0.0000
vn -0.9952 -0.0980 -0.0000
vn -0.9952 0.0980 -0.0000
vn -0.9569 0.2903 -0.0000
vn -0.8819 0.4714 -0.0000
vn -0.7730 0.6344 -0.0000
vn -0.6344 0.7730 -0.0000
vn -0.4714 0.8819 -0.0000
vn -0.2903 0.9569 -0.0000
vn -0.0980 0.9952 -0.0000
vn 0.0980 0.9952 -0.0000
vn 0.2903 0.9569 -0.0000
vn 0.4714 0.8819 -0.0000
vn 0.6344 0.7730 -0.0000
vn 0.7730 0.6344 -0.0000
vn 0.8819 0.4714 -0.0000
vn 0.9569 0.2903 -0.0000
vn 0.9952 0.0980 -0.0000
vn 0.9952 -0.0980 -0.0000
vn 0.9569 -0.2903 -0.0000
vn 0.8819 -0.4714 -0.0000
vn 0.7730 -0.6344 -0.0000
vn 0.6344 -0.7730 -0.0000
vn 0.4714 -0.8819 -0.0000
vn 0.2903 -0.9569 -0.0000
vn 0.0980 -0.9952 -0.0000
vt 0.583333 0.125000
vt 0.625000 0.125000
vt 0.625000 0.250000
vt 0.583333 0.250000
vt 0.541667 0.499137
vt 0.539058 0.500000
vt 0.500000 0.500000
vt 0.500000 0.250000
vt 0.541667 0.250000
vt 0.583333 0.511745
vt 0.583333 0.625000
vt 0.542712 0.750000
vt 0.541667 0.750000
vt 0.541768 0.748865
vt 0.125000 0.625000
vt 0.375000 0.625000
vt 0.375000 0.750000
vt 0.125000 0.750000
vt 0.625000 0.625000
vt 0.875000 0.625000
vt 0.875000 0.750000
vt 0.625000 0.750000
vt 0.625000 0.500000
vt 0.875000 0.500000
vt 0.125000 0.500000
vt 0.375000 0.500000
vt 0.571512 0.261828
vt 0.583333 0.499137
vt 0.582288 0.500000
vt 0.542712 0.500000
vt 0.561182 0.262667
vt 0.560165 0.263690
vt 0.559409 0.264856
vt 0.558944 0.266122
vt 0.558786 0.267439
vt 0.558944 0.268755
vt 0.559409 0.270021
vt 0.560165 0.271188
vt 0.561182 0.272211
vt 0.562422 0.273050
vt 0.563836 0.273673
vt 0.565371 0.274057
vt 0.566967 0.274187
vt 0.568563 0.274057
vt 0.570097 0.273673
vt 0.571512 0.273050
vt 0.572751 0.272211
vt 0.573769 0.271188
vt 0.574525 0.270021
vt 0.574990 0.268755
vt 0.575147 0.267439
vt 0.574990 0.266122
vt 0.574525 0.264856
vt 0.573769 0.263690
vt 0.572751 0.262667
vt 0.570097 0.261204
vt 0.568563 0.260820
vt 0.566967 0.260690
vt 0.565371 0.260820
vt 0.563836 0.261204
vt 0.562422 0.261828
vt 0.583333 0.000000
vt 0.625000 0.000000
vt 0.409514 0.000000
vt 0.500000 0.000000
vt 0.500000 0.125000
vt 0.409514 0.125000
vt 0.409514 0.500000
vt 0.500000 0.625000
vt 0.409514 0.625000
vt 0.409514 0.750000
vt 0.500000 0.750000
vt 0.500000 1.000000
vt 0.409514 1.000000
vt 0.409514 0.250000
vt 0.375000 0.125000
vt 0.375000 0.250000
vt 0.375000 1.000000
vt 0.375000 0.000000
vt 0.541667 0.000000
vt 0.541667 0.125000
vt 0.583333 0.500000
vt 0.583232 0.501135
vt 0.583333 0.750863
vt 0.594387 0.750000
vt 0.625000 1.000000
vt 0.583333 1.000000
vt 0.541667 0.625000
vt 0.541667 0.511745
vt 0.541667 0.625000
vt 0.583333 0.738255
vt 0.541667 0.750863
vt 0.541667 1.000000
vt 0.539058 0.750000
vt 0.542406 0.741692
vt 0.542280 0.737274
vt 0.542323 0.625000
vt 0.582677 0.625000
vt 0.582720 0.737274
vt 0.582594 0.741692
vt 0.582200 0.743115
vt 0.542800 0.743115
vt 0.541667 0.738255
vt 0.594387 0.500000
vt 0.571512 0.988172
vt 0.560908 0.987058
vt 0.561182 0.987333
vt 0.562422 0.988172
vt 0.563836 0.988796
vt 0.565371 0.989180
vt 0.566967 0.989310
vt 0.568563 0.989180
vt 0.570097 0.988796
vt 0.560165 0.986310
vt 0.582288 0.750000
vt 0.572751 0.987333
vt 0.573769 0.986310
vt 0.574524 0.985144
vt 0.574990 0.983878
vt 0.575147 0.982561
vt 0.574990 0.981245
vt 0.574524 0.979979
vt 0.573768 0.978812
vt 0.572751 0.977789
vt 0.571512 0.976950
vt 0.570097 0.976326
vt 0.568563 0.975943
vt 0.566967 0.975813
vt 0.565371 0.975942
vt 0.563836 0.976327
vt 0.562422 0.976950
vt 0.561182 0.977789
vt 0.560165 0.978812
vt 0.559409 0.979979
vt 0.558944 0.981245
vt 0.558786 0.982561
vt 0.558944 0.983878
vt 0.559409 0.985144
vt 0.583333 0.503440
vt 0.541973 0.500000
vt 0.541667 0.500000
vt 0.583027 0.750000
vt 0.583333 0.750000
vt 0.541667 0.746560
vt 0.541768 0.501135
vt 0.558466 0.500000
vt 0.557557 0.500000
vt 0.566040 0.500000
vt 0.565131 0.500000
vt 0.564094 0.500000
vt 0.562969 0.500000
vt 0.561799 0.500000
vt 0.560628 0.500000
vt 0.559503 0.500000
vt 0.566786 0.500000
vt 0.556811 0.500000
vt 0.556256 0.500000
vt 0.555915 0.500000
vt 0.555800 0.500000
vt 0.558466 0.500000
vt 0.559503 0.500000
vt 0.560628 0.500000
vt 0.562969 0.500000
vt 0.564094 0.500000
vt 0.566786 0.500000
vt 0.567341 0.500000
vt 0.567682 0.500000
vt 0.567797 0.500000
vt 0.567341 0.500000
vt 0.583232 0.748865
vt 0.556811 0.750000
vt 0.557557 0.750000
vt 0.566040 0.750000
vt 0.566786 0.750000
vt 0.567341 0.750000
vt 0.567682 0.750000
vt 0.567797 0.750000
vt 0.567682 0.750000
vt 0.567341 0.750000
vt 0.565131 0.750000
vt 0.564094 0.750000
vt 0.562969 0.750000
vt 0.561799 0.750000
vt 0.560628 0.750000
vt 0.559503 0.750000
vt 0.558466 0.750000
vt 0.557557 0.750000
vt 0.556811 0.750000
vt 0.556256 0.750000
vt 0.555915 0.750000
vt 0.555800 0.750000
vt 0.556256 0.750000
vt 0.565131 0.750000
vt 0.558466 0.750000
vt 0.561798 0.750000
vt 0.562969 0.750000
vt 0.564094 0.750000
vt 0.582720 0.512726
vt 0.582594 0.508308
vt 0.582200 0.506885
vt 0.542406 0.508308
vt 0.542280 0.512726
vt 0.542800 0.506885
vt 1.000000 0.502646
vt 0.968750 0.502646
vt 0.968750 0.919868
vt 1.000000 0.919868
vt 0.968750 0.502644
vt 0.937500 0.502644
vt 0.937500 0.919870
vt 0.968750 0.919869
vt 0.906250 0.502644
vt 0.906250 0.919870
vt 0.875000 0.502644
vt 0.875000 0.919870
vt 0.843750 0.502644
vt 0.843750 0.919869
vt 0.812500 0.502644
vt 0.812500 0.919870
vt 0.781250 0.502644
vt 0.781250 0.919870
vt 0.750000 0.502644
vt 0.750000 0.919870
vt 0.718750 0.502644
vt 0.718750 0.919869
vt 0.687500 0.502644
vt 0.687500 0.919869
vt 0.656250 0.502644
vt 0.656250 0.919869
vt 0.625000 0.502644
vt 0.625000 0.919870
vt 0.593750 0.502644
vt 0.593750 0.919870
vt 0.562500 0.502644
vt 0.562500 0.919869
vt 0.531250 0.502644
vt 0.531250 0.919869
vt 0.531250 0.919868
vt 0.531250 0.502646
vt 0.500000 0.502646
vt 0.500000 0.919868
vt 0.468750 0.502646
vt 0.468750 0.919868
vt 0.468750 0.919869
vt 0.468750 0.502644
vt 0.437500 0.502644
vt 0.437500 0.919870
vt 0.406250 0.502644
vt 0.406250 0.919870
vt 0.375000 0.502644
vt 0.375000 0.919870
vt 0.343750 0.502644
vt 0.343750 0.919869
vt 0.312500 0.502644
vt 0.312500 0.919870
vt 0.281250 0.502644
vt 0.281250 0.919870
vt 0.250000 0.502644
vt 0.250000 0.919870
vt 0.218750 0.502644
vt 0.218750 0.919869
vt 0.187500 0.502644
vt 0.187500 0.919869
vt 0.156250 0.502644
vt 0.156250 0.919869
vt 0.125000 0.502644
vt 0.125000 0.919869
vt 0.093750 0.502644
vt 0.093750 0.919870
vt 0.062500 0.502644
vt 0.062500 0.919869
vt 0.031250 0.502644
vt 0.031250 0.919869
vt 0.031250 0.502646
vt 0.000000 0.502646
vt 0.000000 0.919868
vt 0.031250 0.919868
vt 1.000000 0.559464
vt 0.968750 0.559464
vt 0.968750 0.865416
vt 1.000000 0.865416
vt 0.968750 0.559463
vt 0.937500 0.559463
vt 0.937500 0.865417
vt 0.968750 0.865417
vt 0.906250 0.559463
vt 0.906250 0.865417
vt 0.875000 0.559463
vt 0.875000 0.865417
vt 0.843750 0.559463
vt 0.843750 0.865417
vt 0.812500 0.559463
vt 0.812500 0.865417
vt 0.781250 0.559463
vt 0.781250 0.865417
vt 0.750000 0.559463
vt 0.750000 0.865417
vt 0.718750 0.559463
vt 0.718750 0.865417
vt 0.687500 0.559463
vt 0.687500 0.865417
vt 0.656250 0.559463
vt 0.656250 0.865417
vt 0.625000 0.559463
vt 0.625000 0.865417
vt 0.593750 0.559463
vt 0.593750 0.865418
vt 0.562500 0.559463
vt 0.562500 0.865417
vt 0.531250 0.559463
vt 0.531250 0.865417
vt 0.531250 0.865416
vt 0.531250 0.559464
vt 0.500000 0.559464
vt 0.500000 0.865416
vt 0.468750 0.559464
vt 0.468750 0.865416
vt 0.468750 0.865417
vt 0.468750 0.559463
vt 0.437500 0.559463
vt 0.437500 0.865417
vt 0.406250 0.559463
vt 0.406250 0.865417
vt 0.375000 0.559463
vt 0.375000 0.865417
vt 0.383411 0.865417
vt 0.343750 0.559463
vt 0.343750 0.865417
vt 0.312500 0.559463
vt 0.312500 0.865417
vt 0.281250 0.559463
vt 0.281250 0.865417
vt 0.250000 0.559463
vt 0.250000 0.865417
vt 0.218750 0.559463
vt 0.218750 0.865417
vt 0.187500 0.559463
vt 0.187500 0.865417
vt 0.156250 0.559463
vt 0.156250 0.865417
vt 0.125000 0.559463
vt 0.125000 0.865417
vt 0.093750 0.559463
vt 0.093750 0.865418
vt 0.062500 0.559463
vt 0.062500 0.865417
vt 0.031250 0.559463
vt 0.031250 0.865417
vt 0.031250 0.559464
vt 0.000000 0.559464
vt 0.000000 0.865416
vt 0.031250 0.865416
s 0
f 31/1/1 10/2/1 4/3/1 27/4/1
f 41/5/2 40/6/2 15/7/2 14/8/2 28/9/2
f 33/10/3 29/11/3 53/11/3 60/10/3
f 76/12/4 49/12/4 52/13/4 80/14/4
f 9/15/5 11/16/5 5/17/5 1/18/5
f 12/19/3 10/20/3 2/21/3 6/22/3
f 8/23/3 4/24/3 10/20/3 12/19/3
f 3/25/6 7/26/6 11/16/6 9/15/6
f 149/27/2 27/4/2 35/28/2 34/29/2 38/30/2 41/5/2 28/9/2 152/31/2 157/32/2 155/33/2 154/34/2 175/35/2 160/36/2 164/37/2 162/38/2 174/39/2 166/40/2 172/41/2 170/42/2 168/43/2 169/44/2 171/45/2 167/46/2 173/47/2 163/48/2 165/49/2 161/50/2 176/51/2 156/52/2 158/53/2 153/54/2 159/55/2
f 152/31/2 28/9/2 27/4/2 149/27/2 151/56/2 147/57/2 145/58/2 146/59/2 148/60/2 150/61/2
f 26/62/1 2/63/1 10/2/1 31/1/1
f 24/64/1 13/65/1 18/66/1 23/67/1
f 20/68/7 15/7/7 17/69/7 22/70/7
f 21/71/8 16/72/8 13/73/8 24/74/8
f 22/70/7 17/69/7 16/72/7 21/71/7
f 19/75/2 14/8/2 15/7/2 20/68/2
f 23/67/1 18/66/1 14/8/1 19/75/1
f 9/76/1 23/67/1 19/75/1 3/77/1
f 3/77/2 19/75/2 20/68/2 7/26/2
f 11/16/7 22/70/7 21/71/7 5/17/7
f 5/17/8 21/71/8 24/74/8 1/78/8
f 7/26/7 20/68/7 22/70/7 11/16/7
f 1/79/1 24/64/1 23/67/1 9/76/1
f 13/65/1 25/80/1 32/81/1 18/66/1
f 25/80/1 26/62/1 31/1/1 32/81/1
f 37/82/9 62/83/9 58/29/9 34/29/9
f 46/84/8 45/85/8 6/22/8 2/86/8 26/87/8
f 30/88/10 39/89/10 64/89/10 56/90/10
f 45/85/7 44/91/7 29/11/7 12/19/7 6/22/7
f 50/92/8 25/93/8 13/73/8 16/72/8 51/94/8
f 79/95/7 77/96/7 55/97/7 54/98/7 69/99/7 73/100/7 71/101/7 75/102/7
f 39/89/7 30/88/7 17/69/7 15/7/7 40/6/7
f 33/10/11 60/10/11 62/83/11 37/82/11
f 18/66/1 32/81/1 28/9/1 14/8/1
f 32/81/1 31/1/1 27/4/1 28/9/1
f 48/103/10 30/88/10 56/90/10 78/103/10
f 48/103/7 51/94/7 16/72/7 17/69/7 30/88/7
f 36/104/2 35/28/2 27/4/2 4/3/2 8/23/2
f 29/11/3 44/91/3 70/91/3 53/11/3
f 183/105/8 26/87/8 25/93/8 185/106/8 192/107/8 180/108/8 182/109/8 178/110/8 177/111/8 179/112/8 181/113/8
f 184/114/8 185/106/8 25/93/8 50/92/8 49/12/8 43/115/8 46/84/8 26/87/8 183/105/8 186/116/8 191/117/8 189/118/8 187/119/8 209/120/8 194/121/8 198/122/8 196/123/8 206/124/8 200/125/8 204/126/8 202/127/8 201/128/8 203/129/8 205/130/8 199/131/8 207/132/8 195/133/8 197/134/8 193/135/8 208/136/8 188/137/8 190/138/8
f 37/139/12 34/82/12 35/28/12 36/104/12 33/10/12
f 42/140/13 39/141/13 40/6/13 38/30/13
f 47/142/7 44/143/7 45/85/7 43/115/7
f 52/144/14 49/13/14 50/92/14 51/94/14 48/103/14
f 64/89/15 39/89/15 42/141/15 68/145/15
f 86/146/2 88/147/2 38/30/2 34/29/2 89/148/2 87/149/2 85/150/2 83/151/2 81/152/2 82/153/2 84/154/2
f 93/155/2 89/148/2 34/29/2 58/29/2 66/30/2 38/30/2 88/147/2 92/156/2 90/157/2 94/158/2 96/159/2 101/158/2 110/157/2 111/156/2 112/147/2 103/160/2 107/161/2 105/162/2 104/152/2 106/163/2 108/164/2 109/149/2 99/148/2 100/165/2 98/166/2 102/167/2 97/168/2 95/167/2 91/169/2
f 68/145/16 42/141/16 38/30/16 66/30/16
f 47/143/17 74/170/17 70/91/17 44/91/17
f 120/171/8 127/172/8 49/12/8 76/12/8 72/115/8 43/115/8 121/173/8 126/174/8 124/175/8 122/176/8 144/177/8 129/178/8 133/179/8 131/174/8 141/173/8 135/180/8 139/181/8 137/182/8 136/183/8 138/184/8 140/185/8 134/186/8 142/187/8 130/188/8 132/189/8 128/190/8 143/191/8 123/190/8 125/192/8
f 119/193/8 121/173/8 43/115/8 49/12/8 127/172/8 116/194/8 118/185/8 114/184/8 113/195/8 115/196/8 117/197/8
f 43/115/18 72/115/18 74/170/18 47/143/18
f 80/14/19 52/13/19 48/103/19 78/103/19
f 33/10/7 36/104/7 8/23/7 12/19/7 29/11/7
f 59/198/20 61/199/20 62/83/20 60/10/20
f 61/199/21 57/200/21 58/29/21 62/83/21
f 67/201/22 63/202/22 64/89/22 68/145/22
f 65/203/23 67/201/23 68/145/23 66/30/23
f 71/101/24 73/100/24 74/170/24 72/115/24
f 73/100/25 69/99/25 70/91/25 74/170/25
f 79/95/26 75/102/26 76/12/26 80/14/26
f 77/96/27 79/95/27 80/14/27 78/103/27
f 57/200/28 65/203/28 66/30/28 58/29/28
f 54/98/29 59/198/29 60/10/29 53/11/29
f 63/202/30 55/97/30 56/90/30 64/89/30
f 75/102/31 71/101/31 72/115/31 76/12/31
f 69/99/29 54/98/29 53/11/29 70/91/29
f 55/97/30 77/96/30 78/103/30 56/90/30
f 61/199/7 59/198/7 54/98/7 55/97/7 63/202/7 67/201/7 65/203/7 57/200/7
f 97/204/32 102/205/32 129/206/32 144/207/32
f 102/208/33 98/209/33 133/210/33 129/211/33
f 98/209/34 100/212/34 131/213/34 133/210/34
f 100/212/35 99/214/35 141/215/35 131/213/35
f 141/215/36 99/214/36 109/216/36 135/217/36
f 135/217/37 109/216/37 108/218/37 139/219/37
f 139/219/38 108/218/38 106/220/38 137/221/38
f 137/221/39 106/220/39 104/222/39 136/223/39
f 136/223/40 104/222/40 105/224/40 138/225/40
f 138/225/41 105/224/41 107/226/41 140/227/41
f 140/227/42 107/226/42 103/228/42 134/229/42
f 134/229/43 103/228/43 112/230/43 142/231/43
f 142/231/44 112/230/44 111/232/44 130/233/44
f 130/233/45 111/232/45 110/234/45 132/235/45
f 132/235/46 110/234/46 101/236/46 128/237/46
f 128/238/47 101/239/47 96/240/47 143/241/47
f 143/241/48 96/240/48 94/242/48 123/243/48
f 123/244/49 94/245/49 90/246/49 125/247/49
f 125/247/50 90/246/50 92/248/50 120/249/50
f 120/249/51 92/248/51 88/250/51 127/251/51
f 88/250/52 86/252/52 116/253/52 127/251/52
f 86/252/53 84/254/53 118/255/53 116/253/53
f 84/254/54 82/256/54 114/257/54 118/255/54
f 82/256/55 81/258/55 113/259/55 114/257/55
f 81/258/56 83/260/56 115/261/56 113/259/56
f 83/260/57 85/262/57 117/263/57 115/261/57
f 85/262/58 87/264/58 119/265/58 117/263/58
f 87/264/59 89/266/59 121/267/59 119/265/59
f 89/266/60 93/268/60 126/269/60 121/267/60
f 93/268/61 91/270/61 124/271/61 126/269/61
f 91/270/62 95/272/62 122/273/62 124/271/62
f 95/274/63 97/275/63 144/276/63 122/277/63
f 176/278/32 161/279/32 194/280/32 209/281/32
f 161/282/33 165/283/33 198/284/33 194/285/33
f 165/283/34 163/286/34 196/287/34 198/284/34
f 163/286/35 173/288/35 206/289/35 196/287/35
f 206/289/36 173/288/36 167/290/36 200/291/36
f 200/291/37 167/290/37 171/292/37 204/293/37
f 204/293/38 171/292/38 169/294/38 202/295/38
f 202/295/39 169/294/39 168/296/39 201/297/39
f 201/297/40 168/296/40 170/298/40 203/299/40
f 203/299/41 170/298/41 172/300/41 205/301/41
f 205/301/42 172/300/42 166/302/42 199/303/42
f 199/303/43 166/302/43 174/304/43 207/305/43
f 207/305/44 174/304/44 162/306/44 195/307/44
f 195/307/45 162/306/45 164/308/45 197/309/45
f 197/309/46 164/308/46 160/310/46 193/311/46
f 193/312/47 160/313/47 175/314/47 208/315/47
f 208/315/48 175/314/48 154/316/48 188/317/48
f 188/318/49 154/319/49 155/320/49 190/321/49
f 190/321/50 155/320/50 157/322/50 184/323/50
f 184/323/51 157/322/51 152/324/51 192/325/51 185/326/51
f 152/324/52 150/327/52 180/328/52 192/325/52
f 150/327/53 148/329/53 182/330/53 180/328/53
f 148/329/54 146/331/54 178/332/54 182/330/54
f 146/331/55 145/333/55 177/334/55 178/332/55
f 145/333/56 147/335/56 179/336/56 177/334/56
f 147/335/57 151/337/57 181/338/57 179/336/57
f 151/337/58 149/339/58 183/340/58 181/338/58
f 149/339/59 159/341/59 186/342/59 183/340/59
f 159/341/60 153/343/60 191/344/60 186/342/60
f 153/343/61 158/345/61 189/346/61 191/344/61
f 158/345/62 156/347/62 187/348/62 189/346/62
f 156/349/63 176/350/63 209/351/63 187/352/63
